<svg xmlns="http://www.w3.org/2000/svg" width="79.4" height="30.2"><style>.st1{fill:#253b80}.st2{fill:#179bd7}</style><path fill="#fff" d="M0 0h79.4v30.2H0z"/><path class="st1" d="M23.6 9.5c-.8-.7-1.8-1.1-2.8-1H17c-.3 0-.5.2-.5.5l-1.7 9.9c0 .2.1.4.3.4H17c.2 0 .4-.2.5-.4l.4-2.7c0-.3.3-.5.5-.5h1.2c2.2.3 4.1-1.3 4.4-3.5v-.3c.3-.8.1-1.7-.4-2.4zm-2.4 2.6c-.2 1.4-1.3 1.4-2.3 1.4h-.6l.4-2.6c0-.2.2-.3.3-.3h.3c.7 0 1.4 0 1.7.4.2.3.3.7.2 1.1zM32.3 12h-1.9c-.2 0-.3.1-.3.3v.5l-.1-.2c-.6-.6-1.4-.9-2.2-.8-2.1 0-3.9 1.6-4.1 3.8-.2 1 .1 2.1.7 2.9.6.7 1.5 1 2.3.9 1 0 1.9-.4 2.6-1.1v.5c0 .2.1.3.3.4h1.7c.3 0 .5-.2.5-.5l1-6.4c.1-.2 0-.3-.2-.4-.1.1-.2.1-.3.1zm-4.6 5.4c-.5 0-.9-.2-1.2-.5-.3-.4-.4-.9-.3-1.3.1-1.1 1-1.9 2.1-1.9.5 0 .9.2 1.2.5.3.4.4.8.3 1.3-.2 1.2-1.1 2-2.1 1.9zM42.2 12h-1.9c-.2 0-.4.1-.5.2L37.3 16l-1.1-3.7c-.1-.2-.3-.4-.5-.4h-1.9c-.2 0-.3.1-.3.3v.1l2 6.1-1.9 2.7c-.1.1-.1.3.1.4.1 0 .1.1.2.1h1.9c.2 0 .4-.1.5-.2l6.2-9c.1-.2 0-.3-.2-.4h-.1z"/><path class="st2" d="M51.2 9.5c-.8-.7-1.8-1.1-2.8-1h-3.9c-.3 0-.5.2-.5.5l-1.6 9.9c0 .2.1.4.3.4h2c.2 0 .3-.2.4-.3l.5-2.8c0-.3.3-.5.5-.5h1.2c2.2.2 4.2-1.4 4.4-3.6v-.2c.2-.9 0-1.7-.5-2.4zm-2.4 2.6c-.2 1.4-1.3 1.4-2.3 1.4h-.6l.4-2.6c0-.2.2-.3.3-.3h.4c.7 0 1.4 0 1.7.4.2.3.2.7.1 1.1zM60 12h-1.9c-.2 0-.3.1-.3.3v.5l-.1-.2c-.6-.6-1.4-.9-2.2-.8-2.1 0-3.9 1.6-4.1 3.8-.2 1 0 2.1.7 2.9.6.7 1.4 1 2.3.9 1 0 1.9-.4 2.6-1.1v.5c0 .2.1.3.3.4H59c.3 0 .5-.2.5-.5l.9-6.4c0-.2-.1-.3-.3-.4l-.1.1zm-4.7 5.4c-.5 0-.9-.1-1.3-.5-.3-.4-.4-.9-.3-1.3.1-1.1 1-1.9 2.1-1.9.8-.1 1.5.5 1.6 1.3v.5c-.1 1.2-1 2-2.1 1.9zM64.3 8.4h-1.9c-.2 0-.3.1-.3.3l-1.5 10.2c0 .2.1.3.3.4H62.6c.3 0 .5-.2.5-.5l1.6-10c-.1-.2-.2-.4-.4-.4z"/></svg>