<svg xmlns="http://www.w3.org/2000/svg" width="79.4" height="30.2"><path fill="#fff" d="M0 0h79.4v30.2H0z"/><path d="M35.3 9.4l-4.8 11.4h-3.1l-2.3-9c0-.4-.3-.8-.7-1-.9-.4-1.9-.8-2.9-1v-.4h5c.7 0 1.3.5 1.4 1.2l1.2 6.6 3.1-7.8h3.1zm12.2 7.7c0-3-4.2-3.2-4.1-4.5 0-.4.4-.8 1.2-.9 1-.1 2 .1 2.9.5l.5-2.5c-.9-.3-1.8-.5-2.8-.5-2.9 0-5 1.5-5 3.8 0 1.7 1.5 2.6 2.6 3.1s1.5.9 1.5 1.4c0 .8-.9 1.1-1.8 1.1-1.1 0-2.1-.2-3-.7l-.5 2.5c1.1.4 2.2.6 3.3.6 3.1 0 5.2-1.5 5.2-3.9m7.6 3.7h2.7L55.5 9.4H53c-.6 0-1.1.3-1.3.8l-4.4 10.6h3.1l.6-1.7h3.8l.3 1.7zm-3.3-4l1.6-4.3.9 4.3h-2.5zM39.5 9.4L37 20.8h-2.9l2.4-11.4h3z" fill="#122a96"/></svg>