<svg xmlns="http://www.w3.org/2000/svg" width="79.4" height="30.2"><path fill="#fff" d="M0 0h79.4v30.2H0z"/><path d="M27.5 9.2c-.5.6-1.2.9-1.9.9 0-.7.2-1.4.7-2 .5-.6 1.1-.9 1.9-1 0 .8-.3 1.5-.7 2.1m.6 1c-1 0-1.9.6-2.4.6s-1.3-.6-2.1-.5c-1.1 0-2.1.6-2.6 1.6-.9 2.1-.6 4.5.8 6.4.5.8 1.2 1.7 2 1.7s1.1-.5 2.1-.5 1.2.5 2.1.5c.8 0 1.4-.8 1.9-1.6.4-.5.7-1.2.9-1.8-1-.5-1.7-1.5-1.7-2.6 0-1 .5-1.9 1.4-2.4-.6-.8-1.4-1.3-2.4-1.4m6.1-2.1v11.6H36v-4h2.5c2 .1 3.8-1.5 3.9-3.5v-.4c.1-2-1.4-3.7-3.5-3.8h-.4l-4.3.1zM36 9.6h2c1.2-.2 2.3.7 2.5 1.9v.4c.1 1.2-.8 2.3-2 2.3H36V9.6zm9.7 10.3c1.1 0 2.1-.5 2.7-1.5v1.4h1.7V14c0-1.7-1.3-2.8-3.4-2.8-1.6-.2-3.1 1-3.3 2.6H45c.2-.7.9-1.2 1.7-1.2 1.1 0 1.7.5 1.7 1.5v.6l-2.4.2c-2.1.1-3.3 1-3.3 2.5 0 1.4 1.2 2.5 2.7 2.5h.3zm.5-1.4c-1 0-1.7-.5-1.7-1.2s.6-1.2 1.7-1.2l2-.1v.7c0 1-.9 1.8-2 1.8zm6.2 4.5c1.8 0 2.6-.7 3.3-2.7l3.2-8.9H57l-2.1 6.9-2.1-6.9h-1.9l3.1 8.5-.2.5c-.1.7-.8 1.3-1.5 1.2h-.5V23h.6z"/></svg>