<svg xmlns="http://www.w3.org/2000/svg" width="79.4" height="30.2"><path fill="#fff" d="M0 0h79.4v30.2H0z"/><path d="M41.7 11.3c-2.1 0-3.7 1.7-3.6 3.8 0 2.1 1.7 3.7 3.8 3.6 2 0 3.6-1.7 3.6-3.7s-1.7-3.7-3.8-3.7z" fill="#f18a1b"/><path d="M22.1 11.5h1.3v7.1h-1.3zM20.6 13.5c-.2-.4-.5-.8-.8-1.1-.3-.3-.7-.5-1.2-.7-.4-.1-.9-.2-1.4-.2h-2.9v7.1H17c.5 0 .9-.1 1.3-.2.5-.1.9-.4 1.2-.7.8-.6 1.3-1.6 1.3-2.7.2-.5.1-1-.2-1.5zm-1.2 2.7c-.2.3-.4.5-.6.7-.3.2-.6.3-.9.4-.4.1-.8.2-1.1.1h-.9v-4.8h1.2c.4 0 .8.1 1.1.2.3.1.6.2.8.4.3.2.4.5.6.8.2.3.2.7.2 1.1-.2.4-.3.8-.4 1.1zM28.7 14.9c-.2-.1-.5-.3-.7-.3-.3-.1-.6-.2-.8-.3-.2-.1-.5-.2-.6-.3-.2-.1-.3-.3-.2-.5 0-.1 0-.3.1-.4l.3-.3c.1-.1.2-.1.4-.1h.4c.3 0 .5 0 .7.1.2.1.4.2.5.4l.9-1c-.3-.3-.6-.4-1-.6-.7-.2-1.4-.2-2.1 0-.3.1-.6.2-.8.4-.2.2-.5.4-.6.7-.2.3-.2.6-.2.9 0 .4.1.7.3 1l.6.6c.3.2.5.3.8.4.3.1.6.2.8.3l.6.3c.2.1.3.4.3.6 0 .2 0 .3-.1.4l-.3.3c-.1.1-.3.1-.4.2h-.4c-.3 0-.6-.1-.8-.2-.2-.1-.5-.3-.6-.5l-1 .9c.3.3.7.6 1.1.7.4.1.9.2 1.3.2.3 0 .7 0 1-.1.3-.1.6-.2.8-.4.2-.2.4-.4.6-.7.2-.3.2-.7.2-1 0-.3-.1-.7-.2-1-.4-.3-.6-.6-.9-.7zM54.6 15.5h3.3v-1.1h-3.3v-1.8h3.5v-1.1h-4.8v7.1h5v-1.2h-3.7zM63.1 15.4c.5 0 .9-.3 1.2-.6.3-.4.4-.8.4-1.3 0-.3-.1-.7-.2-1-.2-.2-.4-.5-.6-.6-.3-.2-.6-.3-.9-.3h-3.6v7.1h1.3v-3.1h1l1.7 3H65l-1.9-3.2zm-.7-.9h-1.6v-1.9h1.7c.2 0 .3.1.5.1.1.1.3.2.4.3.1.2.1.3.1.5s0 .4-.1.5c-.1.1-.2.2-.4.3l-.6.2zM35.2 17.4c-.3.1-.6.2-.9.2-1 0-2-.6-2.3-1.6-.1-.3-.2-.7-.2-1 0-.3.1-.7.2-1 .1-.3.3-.6.5-.8.2-.2.5-.4.8-.5.3-.1.7-.2 1-.2.3 0 .5 0 .7.1.3.1.6.3.8.6l1-.7c-.3-.4-.7-.7-1.2-.9-.4-.2-.9-.3-1.4-.3-.5 0-1 .1-1.5.3-.5.2-.9.4-1.2.8-.4.3-.6.7-.8 1.2-.2.5-.3 1-.3 1.5s.1 1 .3 1.5c.2.4.4.8.8 1.2.3.3.8.6 1.2.7.5.2 1 .3 1.5.3s1-.1 1.5-.3c.5-.2.9-.5 1.2-1l-.9-.7c-.2.2-.5.5-.8.6zM49.1 16.8l-2-5.3h-1.5l2.9 7.1h1.1l2.9-7.1h-1.4z"/></svg>