<svg xmlns="http://www.w3.org/2000/svg" viewBox="0 0 120 120"><defs><style>.cls-1{fill:none;stroke-width:8px;opacity:0.97;}.cls-1,.cls-3{stroke:#fec86a;stroke-miterlimit:10;}.cls-2,.cls-3{fill:#fec86a;}.cls-3{stroke-width:2px;}</style></defs><title>AI final__</title><g id="Layer_2" data-name="Layer 2"><g id="Layer_1-2" data-name="Layer 1"><rect class="cls-1" x="24" y="24" width="72" height="72" rx="10"/><path class="cls-2" d="M40,0h0a4,4,0,0,1,4,4V20a0,0,0,0,1,0,0H36a0,0,0,0,1,0,0V4a4,4,0,0,1,4-4Z"/><path class="cls-2" d="M80,0h0a4,4,0,0,1,4,4V20a0,0,0,0,1,0,0H76a0,0,0,0,1,0,0V4a4,4,0,0,1,4-4Z"/><path class="cls-2" d="M60,0h0a4,4,0,0,1,4,4V20a0,0,0,0,1,0,0H56a0,0,0,0,1,0,0V4a4,4,0,0,1,4-4Z"/><path class="cls-2" d="M10,70h0a4,4,0,0,1,4,4V90a0,0,0,0,1,0,0H6a0,0,0,0,1,0,0V74A4,4,0,0,1,10,70Z" transform="translate(-70 90) rotate(-90)"/><path class="cls-2" d="M10,30h0a4,4,0,0,1,4,4V50a0,0,0,0,1,0,0H6a0,0,0,0,1,0,0V34A4,4,0,0,1,10,30Z" transform="translate(-30 50) rotate(-90)"/><path class="cls-2" d="M10,50h0a4,4,0,0,1,4,4V70a0,0,0,0,1,0,0H6a0,0,0,0,1,0,0V54A4,4,0,0,1,10,50Z" transform="translate(-50 70) rotate(-90)"/><path class="cls-2" d="M80,100h0a4,4,0,0,1,4,4v16a0,0,0,0,1,0,0H76a0,0,0,0,1,0,0V104a4,4,0,0,1,4-4Z" transform="translate(160 220) rotate(180)"/><path class="cls-2" d="M40,100h0a4,4,0,0,1,4,4v16a0,0,0,0,1,0,0H36a0,0,0,0,1,0,0V104a4,4,0,0,1,4-4Z" transform="translate(80 220) rotate(180)"/><path class="cls-2" d="M60,100h0a4,4,0,0,1,4,4v16a0,0,0,0,1,0,0H56a0,0,0,0,1,0,0V104A4,4,0,0,1,60,100Z" transform="translate(120 220) rotate(180)"/><path class="cls-2" d="M110,30h0a4,4,0,0,1,4,4V50a0,0,0,0,1,0,0h-8a0,0,0,0,1,0,0V34A4,4,0,0,1,110,30Z" transform="translate(150 -70) rotate(90)"/><path class="cls-2" d="M110,70h0a4,4,0,0,1,4,4V90a0,0,0,0,1,0,0h-8a0,0,0,0,1,0,0V74A4,4,0,0,1,110,70Z" transform="translate(190 -30) rotate(90)"/><path class="cls-2" d="M110,50h0a4,4,0,0,1,4,4V70a0,0,0,0,1,0,0h-8a0,0,0,0,1,0,0V54A4,4,0,0,1,110,50Z" transform="translate(170 -50) rotate(90)"/><path class="cls-3" d="M46.25,66.36l-3.33,10A2.36,2.36,0,0,1,40.69,78h0a2.33,2.33,0,0,1-2.21-3.08l11-32.34A2.34,2.34,0,0,1,51.73,41h2.44a2.34,2.34,0,0,1,2.22,1.58L67.48,74.92A2.33,2.33,0,0,1,65.26,78h-.18a2.34,2.34,0,0,1-2.21-1.58L59.43,66.36Zm12.19-3.73L54.8,52c-.83-2.42-1.38-4.61-1.93-6.75h-.11c-.55,2.19-1.16,4.44-1.88,6.69L47.24,62.63Z"/><path class="cls-3" d="M80,43.33V75.67A2.43,2.43,0,0,1,77.48,78h-.12a2.43,2.43,0,0,1-2.52-2.33V43.33A2.43,2.43,0,0,1,77.36,41h.12A2.43,2.43,0,0,1,80,43.33Z"/></g></g></svg>