<svg xmlns="http://www.w3.org/2000/svg" viewBox="0 0 125.96 60.23"><defs><style>.cls-1,.cls-2{fill:#fec86a;}.cls-1{stroke:#fec86a;stroke-miterlimit:10;stroke-width:3px;}</style></defs><title>Code final__</title><g id="Layer_2" data-name="Layer 2"><g id="Layer_1-2" data-name="Layer 1"><path class="cls-1" d="M12.21,7.13h.72a2.58,2.58,0,0,1,2.58,2.58V35.94a.39.39,0,0,1-.39.39H12.21a2.58,2.58,0,0,1-2.58-2.58v-24a2.58,2.58,0,0,1,2.58-2.58Z" transform="translate(18.27 -2.72) rotate(43.17)"/><rect class="cls-1" x="10.15" y="23.6" width="5.89" height="29.2" rx="2.58" transform="translate(49.92 54.8) rotate(133.17)"/><path class="cls-1" d="M72.63,23.91h.72a2.58,2.58,0,0,1,2.58,2.58V51.62a1.49,1.49,0,0,1-1.49,1.49H72.63A2.58,2.58,0,0,1,70,50.53v-24a2.58,2.58,0,0,1,2.58-2.58Z" transform="translate(99.88 116.53) rotate(-136.83)"/><path class="cls-1" d="M72.1,7.43h.72A2.58,2.58,0,0,1,75.41,10V34a2.58,2.58,0,0,1-2.58,2.58H71a1.49,1.49,0,0,1-1.49-1.49V10A2.58,2.58,0,0,1,72.1,7.43Z" transform="translate(6.82 59.81) rotate(-46.83)"/><rect class="cls-1" x="40.37" y="0.68" width="5.89" height="58.88" rx="2.58" transform="translate(9.27 -10.18) rotate(15)"/><rect class="cls-2" x="89.96" y="9.5" width="20" height="8" rx="3.99"/><rect class="cls-2" x="89.96" y="26.5" width="28" height="8" rx="3.99"/><rect class="cls-2" x="89.96" y="43.5" width="36" height="8" rx="3.99"/></g></g></svg>