<svg xmlns="http://www.w3.org/2000/svg" viewBox="0 0 126 81.12"><defs><style>.cls-1{fill:#fec86a;}</style></defs><title>Web design final__</title><g id="Layer_2" data-name="Layer 2"><g id="Layer_1-2" data-name="Layer 1"><path class="cls-1" d="M74.2,69.12c0,1.29-.65,2.32-1.42,2.32H53.08c-.76,0-1.39-1-1.42-2.32H0c0,6.63,3.16,12,7.06,12H118.94c3.9,0,7.06-5.37,7.06-12Z"/><path class="cls-1" d="M124.54,11.55l-5.68-9.83a3.45,3.45,0,0,0-4.7-1.26L74.55,23.33,65.43,39.12H83.66l39.62-22.87a3.45,3.45,0,0,0,1.26-4.7ZM72.36,35.12l4-6.88,4,6.88Zm12-1-5.11-8.86L106.54,9.48l5.11,8.86Zm30.78-17.77L110,7.48l5.67-3.28,5.12,8.87Z"/><path class="cls-1" d="M119,21.11v42H7v-58a4,4,0,0,1,4-4h98l-13.86,8H15v46h96V25.73Z"/></g></g></svg>